<svg xmlns="http://www.w3.org/2000/svg" viewBox="0 0 30 30" id="restaurantsign"><path fill="#6466f1" d="M26 2H4c-1.103 0-2 .897-2 2v22c0 1.103.897 2 2 2h22c1.103 0 2-.897 2-2V4c0-1.103-.897-2-2-2zm-5 19c0 1.103-.897 2-2 2h-8c-1.103 0-2-.897-2-2v-.5a.5.5 0 0 1 .5-.5h11a.5.5 0 0 1 .5.5v.5zm0-5.048V18.5a.5.5 0 0 1-.5.5h-11a.5.5 0 0 1-.5-.5v-2.548A3.957 3.957 0 0 1 7 12.5c0-2.206 1.794-4 4-4 .262 0 .53.032.815.097C12.57 7.59 13.735 7 15 7s2.43.59 3.185 1.597c.284-.065.553-.097.815-.097 2.206 0 4 1.794 4 4a3.957 3.957 0 0 1-2 3.452z" class="color303c42 svgShape"></path></svg>